<svg width="40" height="40" viewBox="0 0 40 40" fill="none" xmlns="http://www.w3.org/2000/svg">
<g id="Group 905">
<circle id="Ellipse 46" cx="20" cy="20" r="20" fill="black"/>
<g id="add_a_photo">
<mask id="mask0_568_21857" style="mask-type:alpha" maskUnits="userSpaceOnUse" x="8" y="7" width="24" height="25">
<rect id="Bounding box" x="8" y="7.99945" width="24" height="24" fill="#D9D9D9"/>
</mask>
<g mask="url(#mask0_568_21857)">
<path id="add_a_photo_2" d="M11 29.9988C10.45 29.9988 9.97917 29.803 9.5875 29.4113C9.19583 29.0197 9 28.5488 9 27.9988V15.9988C9 15.4488 9.19583 14.978 9.5875 14.5863C9.97917 14.1947 10.45 13.9988 11 13.9988H14.15L15.4 12.6488C15.5833 12.4488 15.8042 12.2905 16.0625 12.1738C16.3208 12.0572 16.5917 11.9988 16.875 11.9988H21C21.2833 11.9988 21.5208 12.0947 21.7125 12.2863C21.9042 12.478 22 12.7155 22 12.9988V14.9988C22 15.2822 22.0958 15.5197 22.2875 15.7113C22.4792 15.903 22.7167 15.9988 23 15.9988H25V17.9988C25 18.2822 25.0958 18.5197 25.2875 18.7113C25.4792 18.903 25.7167 18.9988 26 18.9988H28C28.2833 18.9988 28.5208 19.0947 28.7125 19.2863C28.9042 19.478 29 19.7155 29 19.9988V27.9988C29 28.5488 28.8042 29.0197 28.4125 29.4113C28.0208 29.803 27.55 29.9988 27 29.9988H11ZM19 26.4988C20.25 26.4988 21.3125 26.0613 22.1875 25.1863C23.0625 24.3113 23.5 23.2488 23.5 21.9988C23.5 20.7488 23.0625 19.6863 22.1875 18.8113C21.3125 17.9363 20.25 17.4988 19 17.4988C17.75 17.4988 16.6875 17.9363 15.8125 18.8113C14.9375 19.6863 14.5 20.7488 14.5 21.9988C14.5 23.2488 14.9375 24.3113 15.8125 25.1863C16.6875 26.0613 17.75 26.4988 19 26.4988ZM27 13.9988H26C25.7167 13.9988 25.4792 13.903 25.2875 13.7113C25.0958 13.5197 25 13.2822 25 12.9988C25 12.7155 25.0958 12.478 25.2875 12.2863C25.4792 12.0947 25.7167 11.9988 26 11.9988H27V10.9988C27 10.7155 27.0958 10.478 27.2875 10.2863C27.4792 10.0947 27.7167 9.99884 28 9.99884C28.2833 9.99884 28.5208 10.0947 28.7125 10.2863C28.9042 10.478 29 10.7155 29 10.9988V11.9988H30C30.2833 11.9988 30.5208 12.0947 30.7125 12.2863C30.9042 12.478 31 12.7155 31 12.9988C31 13.2822 30.9042 13.5197 30.7125 13.7113C30.5208 13.903 30.2833 13.9988 30 13.9988H29V14.9988C29 15.2822 28.9042 15.5197 28.7125 15.7113C28.5208 15.903 28.2833 15.9988 28 15.9988C27.7167 15.9988 27.4792 15.903 27.2875 15.7113C27.0958 15.5197 27 15.2822 27 14.9988V13.9988Z" fill="white"/>
</g>
</g>
</g>
</svg>
