<svg width="54" height="54" viewBox="0 0 54 54" fill="none" xmlns="http://www.w3.org/2000/svg">
<g id="Group 905">
<circle id="Ellipse 46" cx="27" cy="27" r="27" fill="#D9D9D9"/>
<g id="add_a_photo">
<mask id="mask0_539_20137" style="mask-type:alpha" maskUnits="userSpaceOnUse" x="10" y="10" width="34" height="34">
<rect id="Bounding box" x="10.7999" y="10.7988" width="32.4" height="32.4" fill="#D9D9D9"/>
</mask>
<g mask="url(#mask0_539_20137)">
<path id="add_a_photo_2" d="M14.8499 40.498C14.1074 40.498 13.4718 40.2337 12.943 39.7049C12.4143 39.1762 12.1499 38.5405 12.1499 37.798V21.598C12.1499 20.8555 12.4143 20.2199 12.943 19.6912C13.4718 19.1624 14.1074 18.898 14.8499 18.898H19.1024L20.7899 17.0755C21.0374 16.8055 21.3355 16.5918 21.6843 16.4343C22.033 16.2768 22.3987 16.198 22.7812 16.198H28.3499C28.7324 16.198 29.053 16.3274 29.3118 16.5862C29.5705 16.8449 29.6999 17.1655 29.6999 17.548V20.248C29.6999 20.6305 29.8293 20.9512 30.088 21.2099C30.3468 21.4687 30.6674 21.598 31.0499 21.598H33.7499V24.298C33.7499 24.6805 33.8793 25.0012 34.138 25.2599C34.3968 25.5187 34.7174 25.648 35.0999 25.648H37.7999C38.1824 25.648 38.503 25.7774 38.7618 26.0362C39.0205 26.2949 39.1499 26.6155 39.1499 26.998V37.798C39.1499 38.5405 38.8855 39.1762 38.3568 39.7049C37.828 40.2337 37.1924 40.498 36.4499 40.498H14.8499ZM25.6499 35.773C27.3374 35.773 28.7718 35.1824 29.953 34.0012C31.1343 32.8199 31.7249 31.3855 31.7249 29.698C31.7249 28.0105 31.1343 26.5762 29.953 25.3949C28.7718 24.2137 27.3374 23.623 25.6499 23.623C23.9624 23.623 22.528 24.2137 21.3468 25.3949C20.1655 26.5762 19.5749 28.0105 19.5749 29.698C19.5749 31.3855 20.1655 32.8199 21.3468 34.0012C22.528 35.1824 23.9624 35.773 25.6499 35.773ZM36.4499 18.898H35.0999C34.7174 18.898 34.3968 18.7687 34.138 18.5099C33.8793 18.2512 33.7499 17.9305 33.7499 17.548C33.7499 17.1655 33.8793 16.8449 34.138 16.5862C34.3968 16.3274 34.7174 16.198 35.0999 16.198H36.4499V14.848C36.4499 14.4655 36.5793 14.1449 36.838 13.8862C37.0968 13.6274 37.4174 13.498 37.7999 13.498C38.1824 13.498 38.503 13.6274 38.7618 13.8862C39.0205 14.1449 39.1499 14.4655 39.1499 14.848V16.198H40.4999C40.8824 16.198 41.203 16.3274 41.4618 16.5862C41.7205 16.8449 41.8499 17.1655 41.8499 17.548C41.8499 17.9305 41.7205 18.2512 41.4618 18.5099C41.203 18.7687 40.8824 18.898 40.4999 18.898H39.1499V20.248C39.1499 20.6305 39.0205 20.9512 38.7618 21.2099C38.503 21.4687 38.1824 21.598 37.7999 21.598C37.4174 21.598 37.0968 21.4687 36.838 21.2099C36.5793 20.9512 36.4499 20.6305 36.4499 20.248V18.898Z" fill="#1C1B1F"/>
</g>
</g>
</g>
</svg>
