<svg width="99" height="142" viewBox="0 0 99 142" fill="none" xmlns="http://www.w3.org/2000/svg">
<g id="arrow_back_ios" filter="url(#filter0_d_1960_7680)">
<mask id="mask0_1960_7680" style="mask-type:alpha" maskUnits="userSpaceOnUse" x="1" y="43" width="48" height="48">
<rect id="Bounding box" x="1" y="43" width="48" height="48" fill="#D9D9D9"/>
</mask>
<g mask="url(#mask0_1960_7680)">
<path id="arrow_back_ios_2" d="M44.4214 87.1282C44.5158 87.2225 44.6439 87.2752 44.7773 87.2746C44.9107 87.274 45.0383 87.2201 45.1318 87.1249L47.8318 84.3749C48.0241 84.179 48.0225 83.8647 47.8283 83.6708L31.1324 66.9993L47.8286 50.3032C48.0232 50.1085 48.0239 49.7932 47.8302 49.5977L45.1302 46.8727C45.0366 46.7782 44.9092 46.7249 44.7762 46.7246C44.6431 46.7243 44.5155 46.777 44.4214 46.8711L24.6464 66.6461C24.4512 66.8413 24.4512 67.1579 24.6464 67.3532L44.4214 87.1282Z" fill="black" stroke="#FAFAFA" stroke-linejoin="round"/>
</g>
</g>
<defs>
<filter id="filter0_d_1960_7680" x="-26" y="0.224609" width="124.475" height="141.551" filterUnits="userSpaceOnUse" color-interpolation-filters="sRGB">
<feFlood flood-opacity="0" result="BackgroundImageFix"/>
<feColorMatrix in="SourceAlpha" type="matrix" values="0 0 0 0 0 0 0 0 0 0 0 0 0 0 0 0 0 0 127 0" result="hardAlpha"/>
<feOffset dy="4"/>
<feGaussianBlur stdDeviation="25"/>
<feComposite in2="hardAlpha" operator="out"/>
<feColorMatrix type="matrix" values="0 0 0 0 0 0 0 0 0 0 0 0 0 0 0 0 0 0 0.25 0"/>
<feBlend mode="normal" in2="BackgroundImageFix" result="effect1_dropShadow_1960_7680"/>
<feBlend mode="normal" in="SourceGraphic" in2="effect1_dropShadow_1960_7680" result="shape"/>
</filter>
</defs>
</svg>
