<svg width="16" height="18" viewBox="0 0 16 18" fill="none" xmlns="http://www.w3.org/2000/svg">
<g id="calendar_month">
<path id="calendar_month_2" d="M7.67106 10.75C7.43202 10.75 7.22569 10.6647 7.05208 10.494C6.87847 10.3233 6.79167 10.1184 6.79167 9.8794C6.79167 9.64036 6.87701 9.43403 7.04769 9.26042C7.21838 9.08681 7.42324 9 7.66227 9C7.90131 9 8.10764 9.08534 8.28125 9.25602C8.45486 9.42672 8.54167 9.63158 8.54167 9.8706C8.54167 10.1096 8.45633 10.316 8.28565 10.4896C8.11495 10.6632 7.91009 10.75 7.67106 10.75ZM4.42106 10.75C4.18202 10.75 3.97569 10.6647 3.80208 10.494C3.62847 10.3233 3.54167 10.1184 3.54167 9.8794C3.54167 9.64036 3.62701 9.43403 3.79769 9.26042C3.96838 9.08681 4.17324 9 4.41227 9C4.65131 9 4.85764 9.08534 5.03125 9.25602C5.20486 9.42672 5.29167 9.63158 5.29167 9.8706C5.29167 10.1096 5.20633 10.316 5.03565 10.4896C4.86495 10.6632 4.66009 10.75 4.42106 10.75ZM10.9211 10.75C10.682 10.75 10.4757 10.6647 10.3021 10.494C10.1285 10.3233 10.0417 10.1184 10.0417 9.8794C10.0417 9.64036 10.127 9.43403 10.2977 9.26042C10.4684 9.08681 10.6732 9 10.9123 9C11.1513 9 11.3576 9.08534 11.5312 9.25602C11.7049 9.42672 11.7917 9.63158 11.7917 9.8706C11.7917 10.1096 11.7063 10.316 11.5356 10.4896C11.365 10.6632 11.1601 10.75 10.9211 10.75ZM7.67106 13.75C7.43202 13.75 7.22569 13.6647 7.05208 13.494C6.87847 13.3233 6.79167 13.1184 6.79167 12.8794C6.79167 12.6404 6.87701 12.434 7.04769 12.2604C7.21838 12.0868 7.42324 12 7.66227 12C7.90131 12 8.10764 12.0853 8.28125 12.256C8.45486 12.4267 8.54167 12.6316 8.54167 12.8706C8.54167 13.1096 8.45633 13.316 8.28565 13.4896C8.11495 13.6632 7.91009 13.75 7.67106 13.75ZM4.42106 13.75C4.18202 13.75 3.97569 13.6647 3.80208 13.494C3.62847 13.3233 3.54167 13.1184 3.54167 12.8794C3.54167 12.6404 3.62701 12.434 3.79769 12.2604C3.96838 12.0868 4.17324 12 4.41227 12C4.65131 12 4.85764 12.0853 5.03125 12.256C5.20486 12.4267 5.29167 12.6316 5.29167 12.8706C5.29167 13.1096 5.20633 13.316 5.03565 13.4896C4.86495 13.6632 4.66009 13.75 4.42106 13.75ZM10.9211 13.75C10.682 13.75 10.4757 13.6647 10.3021 13.494C10.1285 13.3233 10.0417 13.1184 10.0417 12.8794C10.0417 12.6404 10.127 12.434 10.2977 12.2604C10.4684 12.0868 10.6732 12 10.9123 12C11.1513 12 11.3576 12.0853 11.5312 12.256C11.7049 12.4267 11.7917 12.6316 11.7917 12.8706C11.7917 13.1096 11.7063 13.316 11.5356 13.4896C11.365 13.6632 11.1601 13.75 10.9211 13.75ZM2.04167 17.25C1.48021 17.25 0.999569 17.0477 0.59975 16.643C0.199917 16.2383 0 15.7601 0 15.2083V3.95833C0 3.4066 0.199917 2.92839 0.59975 2.52371C0.999569 2.11901 1.48021 1.91667 2.04167 1.91667H2.875V0H4.91667V1.91667H10.4167V0H12.4583V1.91667H13.2917C13.8531 1.91667 14.3338 2.11901 14.7336 2.52371C15.1334 2.92839 15.3333 3.4066 15.3333 3.95833V15.2083C15.3333 15.7601 15.1334 16.2383 14.7336 16.643C14.3338 17.0477 13.8531 17.25 13.2917 17.25H2.04167ZM2.04167 15.2083H13.2917V7.20833H2.04167V15.2083Z" fill="#848484"/>
</g>
</svg>
