<svg width="24" height="24" viewBox="0 0 24 24" fill="none" xmlns="http://www.w3.org/2000/svg">
<g id="calendar_today">
<mask id="mask0_764_23213" style="mask-type:alpha" maskUnits="userSpaceOnUse" x="0" y="0" width="24" height="24">
<rect id="Bounding box" width="24" height="24" fill="#D9D9D9"/>
</mask>
<g mask="url(#mask0_764_23213)">
<path id="calendar_today_2" d="M4.8502 22.75C4.12145 22.75 3.49759 22.4905 2.97862 21.9715C2.45967 21.4526 2.2002 20.8288 2.2002 20.1V5.8C2.2002 5.07125 2.45967 4.4474 2.97862 3.92845C3.49759 3.40948 4.12145 3.15 4.8502 3.15H5.0502V1.25H7.7002V3.15H16.3002V1.25H18.9502V3.15H19.1502C19.8789 3.15 20.5028 3.40948 21.0217 3.92845C21.5407 4.4474 21.8002 5.07125 21.8002 5.8V20.1C21.8002 20.8288 21.5407 21.4526 21.0217 21.9715C20.5028 22.4905 19.8789 22.75 19.1502 22.75H4.8502ZM4.8502 20.1H19.1502V9.5H4.8502V20.1Z" fill="black"/>
</g>
</g>
</svg>
