<svg width="107" height="73" viewBox="0 0 107 73" fill="none" xmlns="http://www.w3.org/2000/svg">
<g id="image 27_layerstyle">
<g id="Group">
<path id="Vector" d="M1.07633 3.49388C1.70947 2.35424 2.7858 1.08797 3.48225 0.708085C4.30533 0.264889 20.387 0.0116349 53.3101 0.0116349C90.9817 -0.0516787 102.315 0.138262 103.518 0.708085C104.404 1.15128 105.544 2.48087 106.05 3.5572C106.873 5.32998 107 10.7749 107 36.3536C107 61.9323 106.873 67.3773 106.05 69.1501C105.544 70.2264 104.404 71.556 103.518 71.9992C102.315 72.569 90.9817 72.759 53.5 72.759C16.0183 72.759 4.68521 72.569 3.48225 71.9992C2.59586 71.556 1.45621 70.2264 0.949704 69.1501C0.126627 67.3773 0 61.9323 0 36.3536C0 8.49566 0.126627 5.45661 1.07633 3.49388Z" fill="black"/>
<path id="Vector_2" d="M3.10237 36.3529C3.03906 9.06476 3.16568 5.77245 4.11539 4.50618L5.1284 3.11328H101.935L102.885 4.50618C103.708 5.77245 103.834 10.331 103.834 36.3529C103.834 62.3748 103.708 66.9334 101.935 69.5926H5.06509L4.11539 68.1997C3.29231 66.9334 3.16568 62.3115 3.10237 36.3529Z" fill="white"/>
<g id="Vector_3">
<path d="M70.2781 11.4077C71.9243 10.268 74.4568 9.19171 76.2929 8.87514C78.0657 8.62189 80.4716 8.49526 81.6746 8.6852C82.8775 8.87514 85.2834 9.57159 86.9929 10.3314C88.829 11.0911 91.1083 12.8006 92.5645 14.5101C93.9574 16.1562 95.4136 18.7521 95.9835 20.5248C96.49 22.2976 96.8698 24.7669 96.8698 26.0964C96.8698 27.3627 96.3 29.9586 95.6036 31.7947C94.9704 33.5675 93.5142 35.9101 90.5385 38.8858V50.9154C90.6018 61.0456 90.4118 63.0716 89.5888 63.768C88.7657 64.4012 87.9426 63.8947 79.8385 55.9805L75.5331 59.9059C73.1905 62.0586 70.7213 63.8314 70.0882 63.8947C69.0752 63.8947 69.0118 62.8817 68.9485 39.5189L66.9858 37.303C65.9095 36.1 64.4533 33.9473 63.8201 32.5544C63.187 31.0349 62.6805 28.5024 62.6805 26.2231C62.6805 24.1337 62.9971 21.4112 63.3769 20.2083C63.8201 19.0053 64.8965 16.9793 65.7829 15.6497C66.6692 14.3834 68.6953 12.484 70.2781 11.4077Z" fill="black"/>
<path d="M10.3201 26.1598C10.0036 25.5266 10.1935 24.9568 10.7633 24.5769C11.2698 24.2604 18.9941 24.0071 27.858 24.0071C41.6604 23.9438 44.1296 24.0704 44.826 24.9568C45.2059 25.4633 45.4592 26.2231 45.2692 26.5396C45.0793 26.9195 38.6213 27.1728 27.858 27.1728C12.8527 27.1728 10.7 27.0462 10.3201 26.1598Z" fill="black"/>
<path d="M10.4468 37.303C10.2568 36.9864 10.2568 36.2266 10.4468 35.7201C10.7 34.897 13.1692 34.7704 27.858 34.7704C40.9639 34.7704 45.016 34.9604 45.2059 35.5935C45.2692 35.9734 45.2692 36.7331 45.2059 37.1763C45.016 37.7461 40.9639 37.9361 27.858 37.9361C17.0947 37.9361 10.6367 37.6828 10.4468 37.303Z" fill="black"/>
<path d="M10.7633 48.1296C10.1935 47.7497 10.0036 47.1799 10.2568 46.5467C10.7 45.6604 12.8527 45.5337 27.858 45.5337C38.6213 45.5337 45.0793 45.787 45.2692 46.1669C45.4592 46.5467 45.2059 47.2432 44.826 47.7497C44.1296 48.6361 41.6604 48.7627 27.858 48.6994C18.9941 48.6994 11.2698 48.4461 10.7633 48.1296Z" fill="black"/>
</g>
<g id="Vector_4">
<path d="M70.0249 15.7142C71.0379 14.7645 72.684 13.5615 73.7604 12.9917C75.0899 12.2319 76.926 11.9787 80.155 12.1053C83.7639 12.2953 85.0935 12.6118 87.2462 14.068C88.7657 15.0177 90.6651 17.1071 91.6148 18.8166C92.5012 20.4627 93.4509 22.8053 93.5775 24.0083C93.7675 25.2112 93.5142 27.6805 93.0077 29.3899C92.4379 31.6692 91.3615 33.3787 89.2722 35.468C87.0562 37.7473 85.6633 38.5071 82.9408 39.1402C80.9781 39.6467 78.5089 39.7734 77.2426 39.5201C76.0397 39.3302 73.8237 38.4438 72.3675 37.5574C70.5314 36.5444 69.0118 34.9615 67.7456 32.7455C66.2894 30.1497 65.8462 28.6302 65.8462 25.9077C65.8462 23.8816 66.3527 21.3491 67.0491 19.8929C67.6823 18.5 69.0118 16.6006 70.0249 15.7142Z" fill="white"/>
<path d="M72.1142 58.5142L72.0509 49.9035L71.9876 41.2296L74.7734 42.1793C76.5462 42.8124 78.6988 43.0024 80.7249 42.7491C82.4343 42.5592 84.6503 42.2426 87.3728 41.7361V49.5237C87.3728 53.7657 87.1828 57.4379 86.9296 57.7544C86.6763 58.0077 84.9036 56.7414 79.7752 51.5497L77.7491 53.4491C76.6095 54.5254 74.9 56.1083 72.1142 58.5142Z" fill="white"/>
</g>
<path id="Vector_5" d="M72.4941 21.4746C73.0006 20.3983 74.2035 19.132 75.2166 18.6255H75.1532C76.1663 18.119 78.2556 17.7391 79.9018 17.6758C82.371 17.6758 83.3207 17.9923 84.9035 19.3852C85.9166 20.3983 87.1195 22.171 87.4994 23.374C87.8793 24.577 87.9426 26.5397 87.7527 27.616C87.4994 28.8823 86.4864 30.4651 85.1568 31.6048C83.9538 32.6811 81.9911 33.6941 80.8515 33.8841C79.6485 34.074 77.8757 33.8841 76.4195 33.2509C75.1532 32.6811 73.5071 31.2882 72.8106 30.2119C72.1142 29.0722 71.5444 27.0462 71.5444 25.7799C71.5444 24.4503 71.9876 22.5509 72.4941 21.4746Z" fill="black"/>
<path id="Vector_6" d="M74.5834 25.4656C74.5201 24.3893 75.0266 23.2497 75.9763 22.3C76.926 21.3503 78.1923 20.8438 79.5852 20.8438C80.9781 20.8438 82.2022 21.3714 83.2574 22.4266C84.1438 23.313 84.8402 24.7059 84.8402 25.5923C84.8402 26.4787 84.0172 27.9982 83.0041 29.0745C81.9911 30.1509 80.6615 30.9739 80.155 30.9739C79.5852 30.9739 78.3822 30.594 77.4325 30.0875C76.4195 29.6443 75.4698 28.758 75.2166 28.1881C74.9 27.6183 74.6467 26.4153 74.5834 25.4656Z" fill="white"/>
</g>
</g>
</svg>
