<svg width="23" height="23" viewBox="0 0 23 23" fill="none" xmlns="http://www.w3.org/2000/svg">
<g id="&#240;&#159;&#166;&#134; icon &#34;copy&#34;">
<g id="Group">
<path id="Vector" d="M16.1004 12.5353V17.3654C16.1004 21.3905 14.4904 23.0005 10.4653 23.0005H5.63514C1.61004 23.0005 0 21.3905 0 17.3654V12.5353C0 8.51019 1.61004 6.90015 5.63514 6.90015H10.4653C14.4904 6.90015 16.1004 8.51019 16.1004 12.5353Z" fill="#292D32"/>
<path id="Vector_2" d="M17.3647 -0.000488281H12.5346C8.98888 -0.000488281 7.32601 1.25775 6.97958 4.29948C6.90711 4.93584 7.43413 5.46215 8.07459 5.46215H10.4645C15.2946 5.46215 17.5372 7.7047 17.5372 12.5348V14.9247C17.5372 15.5651 18.0634 16.0922 18.6999 16.0198C21.7416 15.6732 22.9998 14.0104 22.9998 10.4648V5.63465C22.9998 1.60955 21.3898 -0.000488281 17.3647 -0.000488281Z" fill="#292D32"/>
</g>
</g>
</svg>
