<svg width="48" height="49" viewBox="0 0 48 49" fill="none" xmlns="http://www.w3.org/2000/svg">
<g id="Social Icons" clip-path="url(#clip0_804_20000)">
<path id="Vector" d="M48 24.5C48 11.2452 37.2548 0.5 24 0.5C10.7452 0.5 0 11.2452 0 24.5C0 36.4789 8.77641 46.408 20.25 48.2084V31.4375H14.1562V24.5H20.25V19.2125C20.25 13.1975 23.8331 9.875 29.3152 9.875C31.9402 9.875 34.6875 10.3438 34.6875 10.3438V16.25H31.6613C28.68 16.25 27.75 18.1002 27.75 20V24.5H34.4062L33.3422 31.4375H27.75V48.2084C39.2236 46.408 48 36.4789 48 24.5Z" fill="#1877F2"/>
<path id="Vector_2" d="M33.3422 31.4375L34.4062 24.5H27.75V20C27.75 18.102 28.68 16.25 31.6613 16.25H34.6875V10.3438C34.6875 10.3438 31.9411 9.875 29.3152 9.875C23.8331 9.875 20.25 13.1975 20.25 19.2125V24.5H14.1562V31.4375H20.25V48.2084C22.7349 48.5972 25.2651 48.5972 27.75 48.2084V31.4375H33.3422Z" fill="white"/>
</g>
<defs>
<clipPath id="clip0_804_20000">
<rect width="48" height="48" fill="white" transform="translate(0 0.5)"/>
</clipPath>
</defs>
</svg>
