<svg width="24" height="24" viewBox="0 0 24 24" fill="none" xmlns="http://www.w3.org/2000/svg">
<g id="search">
<mask id="mask0_1757_19423" style="mask-type:alpha" maskUnits="userSpaceOnUse" x="0" y="0" width="24" height="24">
<rect id="Bounding box" width="24" height="24" fill="#D9D9D9"/>
</mask>
<g mask="url(#mask0_1757_19423)">
<path id="search_2" d="M22.5 22.3L16.15 15.95C15.65 16.3333 15.0375 16.6375 14.3125 16.8625C13.5875 17.0875 12.85 17.2 12.1 17.2C10.1167 17.2 8.4375 16.5125 7.0625 15.1375C5.6875 13.7625 5 12.0833 5 10.1C5 8.11667 5.6875 6.4375 7.0625 5.0625C8.4375 3.6875 10.1167 3 12.1 3C14.0833 3 15.7625 3.6875 17.1375 5.0625C18.5125 6.4375 19.2 8.11667 19.2 10.1C19.2 10.85 19.0958 11.5667 18.8875 12.25C18.6792 12.9333 18.375 13.5417 17.975 14.075L24.35 20.45L22.5 22.3ZM12.1 14.55C13.35 14.55 14.4042 14.1208 15.2625 13.2625C16.1208 12.4042 16.55 11.35 16.55 10.1C16.55 8.85 16.1208 7.79583 15.2625 6.9375C14.4042 6.07917 13.35 5.65 12.1 5.65C10.85 5.65 9.79583 6.07917 8.9375 6.9375C8.07917 7.79583 7.65 8.85 7.65 10.1C7.65 11.35 8.07917 12.4042 8.9375 13.2625C9.79583 14.1208 10.85 14.55 12.1 14.55Z" fill="#848484"/>
</g>
</g>
</svg>
