<svg width="20" height="21" viewBox="0 0 20 21" fill="none" xmlns="http://www.w3.org/2000/svg">
<g id="notifications">
<mask id="mask0_2173_3864" style="mask-type:alpha" maskUnits="userSpaceOnUse" x="0" y="0" width="20" height="21">
<rect id="Bounding box" y="0.5" width="20" height="20" fill="#D9D9D9"/>
</mask>
<g mask="url(#mask0_2173_3864)">
<path id="notifications_2" d="M3.08258 16.3615V14.6116H4.82564V8.75737C4.82564 7.57218 5.17171 6.51084 5.86383 5.57334C6.55597 4.63584 7.47148 4.02126 8.61037 3.72959V3.13236C8.61037 2.74966 8.74633 2.42944 9.01825 2.17172C9.29016 1.91401 9.61771 1.78516 10.0009 1.78516C10.3841 1.78516 10.7111 1.91401 10.9819 2.17172C11.2527 2.42944 11.3881 2.74966 11.3881 3.13236V3.72959C12.527 4.02126 13.4472 4.63584 14.1485 5.57334C14.8499 6.51084 15.2006 7.57218 15.2006 8.75737V14.6116H16.9159V16.3615H3.08258ZM9.99852 19.1949C9.50341 19.1949 9.07419 19.0154 8.71087 18.6563C8.34757 18.2973 8.16591 17.8657 8.16591 17.3615H11.8326C11.8326 17.8708 11.653 18.3037 11.2938 18.6601C10.9347 19.0166 10.5029 19.1949 9.99852 19.1949Z" fill="black"/>
</g>
</g>
</svg>
