<svg width="20" height="21" viewBox="0 0 20 21" fill="none" xmlns="http://www.w3.org/2000/svg">
<g id="search">
<mask id="mask0_2173_3861" style="mask-type:alpha" maskUnits="userSpaceOnUse" x="0" y="0" width="20" height="21">
<rect id="Bounding box" y="0.5" width="20" height="20" fill="#D9D9D9"/>
</mask>
<g mask="url(#mask0_2173_3861)">
<path id="search_2" d="M16.6317 18.3472L11.2012 12.9167C10.7752 13.2639 10.2673 13.5336 9.6774 13.7257C9.08751 13.9178 8.48171 14.0139 7.86001 14.0139C6.24798 14.0139 4.89026 13.4618 3.78684 12.3576C2.68342 11.2535 2.13171 9.9074 2.13171 8.31944C2.13171 6.73148 2.6838 5.38542 3.78796 4.28125C4.89212 3.17708 6.23818 2.625 7.82615 2.625C9.41411 2.625 10.7602 3.17708 11.8643 4.28125C12.9685 5.38542 13.5206 6.73217 13.5206 8.32152C13.5206 8.93588 13.4292 9.52547 13.2463 10.0903C13.0634 10.6551 12.7868 11.1782 12.4164 11.6597L17.8817 17.0972L16.6317 18.3472ZM7.83309 12.2639C8.93726 12.2639 9.86955 11.8818 10.63 11.1175C11.3904 10.3532 11.7706 9.42052 11.7706 8.31944C11.7706 7.21835 11.3908 6.28567 10.6312 5.5214C9.8716 4.75713 8.9393 4.375 7.83432 4.375C6.72161 4.375 5.78467 4.75713 5.02348 5.5214C4.26229 6.28567 3.88169 7.21835 3.88169 8.31944C3.88169 9.42052 4.26229 10.3532 5.02348 11.1175C5.78467 11.8818 6.7212 12.2639 7.83309 12.2639Z" fill="black"/>
</g>
</g>
</svg>
