
<svg width="110" height="93" viewBox="0 0 110 93" fill="none" xmlns="http://www.w3.org/2000/svg">
    <g clip-path="url(#clip0_343_2616)">
        <path d="M55 6.48737V4.96785C55 2.50072 53.0182 0.5 50.5743 0.5H4.42567C1.98183 0.5 0 2.50072 0 4.96785V85.5354H110V10.9552C110 8.48809 108.018 6.48737 105.574 6.48737H55Z" fill="#F9DF5C" />
        <path d="M53.4307 22.1063L51.7972 26.676H4.42567C1.98183 26.676 0 28.6767 0 31.1438V88.0303C0 90.4974 1.98183 92.4981 4.42567 92.4981H105.574C108.018 92.4981 110 90.4974 110 88.0303V23.6221C110 21.155 108.018 19.1543 105.574 19.1543H57.5942C55.7297 19.1543 54.0632 20.3351 53.4307 22.1063Z" fill="#F3CC30" />
        <path d="M110 88.0322V50.9438C79.4457 80.9454 26.4495 88.9742 1.23016 91.1174C2.035 91.967 3.168 92.5 4.42566 92.5H105.574C108.018 92.5 110 90.4993 110 88.0322Z" fill="#EDBD31" />
        <path d="M44.6692 30.274H7.26549C5.29099 30.274 3.69232 31.8897 3.69232 33.8812V41.873C9.98432 37.5217 24.1817 32.0396 44.671 30.274H44.6692Z" fill="#F6D738" />
    </g>
    <defs>
        <clipPath id="clip0_343_2616">
            <rect width="110" height="92" fill="white" transform="translate(0 0.5)" />
        </clipPath>
    </defs>
</svg>
