<svg width="48" height="49" viewBox="0 0 48 49" fill="none" xmlns="http://www.w3.org/2000/svg">
<g id="Social Icons" clip-path="url(#clip0_804_20008)">
<path id="Vector" d="M24 4.82187C30.4125 4.82187 31.1719 4.85 33.6938 4.9625C36.0375 5.06562 37.3031 5.45938 38.1469 5.7875C39.2625 6.21875 40.0688 6.74375 40.9031 7.57812C41.7469 8.42188 42.2625 9.21875 42.6938 10.3344C43.0219 11.1781 43.4156 12.4531 43.5188 14.7875C43.6313 17.3187 43.6594 18.0781 43.6594 24.4813C43.6594 30.8938 43.6313 31.6531 43.5188 34.175C43.4156 36.5188 43.0219 37.7844 42.6938 38.6281C42.2625 39.7438 41.7375 40.55 40.9031 41.3844C40.0594 42.2281 39.2625 42.7438 38.1469 43.175C37.3031 43.5031 36.0281 43.8969 33.6938 44C31.1625 44.1125 30.4031 44.1406 24 44.1406C17.5875 44.1406 16.8281 44.1125 14.3063 44C11.9625 43.8969 10.6969 43.5031 9.85313 43.175C8.7375 42.7438 7.93125 42.2188 7.09688 41.3844C6.25313 40.5406 5.7375 39.7438 5.30625 38.6281C4.97813 37.7844 4.58438 36.5094 4.48125 34.175C4.36875 31.6438 4.34063 30.8844 4.34063 24.4813C4.34063 18.0688 4.36875 17.3094 4.48125 14.7875C4.58438 12.4437 4.97813 11.1781 5.30625 10.3344C5.7375 9.21875 6.2625 8.4125 7.09688 7.57812C7.94063 6.73438 8.7375 6.21875 9.85313 5.7875C10.6969 5.45938 11.9719 5.06562 14.3063 4.9625C16.8281 4.85 17.5875 4.82187 24 4.82187ZM24 0.5C17.4844 0.5 16.6688 0.528125 14.1094 0.640625C11.5594 0.753125 9.80625 1.16562 8.2875 1.75625C6.70312 2.375 5.3625 3.19062 4.03125 4.53125C2.69063 5.8625 1.875 7.20313 1.25625 8.77813C0.665625 10.3063 0.253125 12.05 0.140625 14.6C0.028125 17.1687 0 17.9844 0 24.5C0 31.0156 0.028125 31.8312 0.140625 34.3906C0.253125 36.9406 0.665625 38.6938 1.25625 40.2125C1.875 41.7969 2.69063 43.1375 4.03125 44.4688C5.3625 45.8 6.70313 46.625 8.27813 47.2344C9.80625 47.825 11.55 48.2375 14.1 48.35C16.6594 48.4625 17.475 48.4906 23.9906 48.4906C30.5063 48.4906 31.3219 48.4625 33.8813 48.35C36.4313 48.2375 38.1844 47.825 39.7031 47.2344C41.2781 46.625 42.6188 45.8 43.95 44.4688C45.2812 43.1375 46.1063 41.7969 46.7156 40.2219C47.3063 38.6938 47.7188 36.95 47.8313 34.4C47.9438 31.8406 47.9719 31.025 47.9719 24.5094C47.9719 17.9938 47.9438 17.1781 47.8313 14.6188C47.7188 12.0688 47.3063 10.3156 46.7156 8.79688C46.125 7.20312 45.3094 5.8625 43.9688 4.53125C42.6375 3.2 41.2969 2.375 39.7219 1.76562C38.1938 1.175 36.45 0.7625 33.9 0.65C31.3313 0.528125 30.5156 0.5 24 0.5Z" fill="#000100"/>
<path id="Vector_2" d="M24 12.1719C17.1938 12.1719 11.6719 17.6938 11.6719 24.5C11.6719 31.3062 17.1938 36.8281 24 36.8281C30.8062 36.8281 36.3281 31.3062 36.3281 24.5C36.3281 17.6938 30.8062 12.1719 24 12.1719ZM24 32.4969C19.5844 32.4969 16.0031 28.9156 16.0031 24.5C16.0031 20.0844 19.5844 16.5031 24 16.5031C28.4156 16.5031 31.9969 20.0844 31.9969 24.5C31.9969 28.9156 28.4156 32.4969 24 32.4969Z" fill="#000100"/>
<path id="Vector_3" d="M39.6937 11.6848C39.6937 13.2785 38.4 14.5629 36.8156 14.5629C35.2219 14.5629 33.9375 13.2691 33.9375 11.6848C33.9375 10.091 35.2313 8.80664 36.8156 8.80664C38.4 8.80664 39.6937 10.1004 39.6937 11.6848Z" fill="#000100"/>
</g>
<defs>
<clipPath id="clip0_804_20008">
<rect width="48" height="48" fill="white" transform="translate(0 0.5)"/>
</clipPath>
</defs>
</svg>
