<svg width="52" height="49" viewBox="0 0 52 49" fill="none" xmlns="http://www.w3.org/2000/svg">
<path id="Exclude" fill-rule="evenodd" clip-rule="evenodd" d="M0 24.5C0 11.245 11.4613 0.5 25.6 0.5C39.7387 0.5 51.2 11.245 51.2 24.5C51.2 37.755 39.7387 48.5 25.6 48.5C11.4613 48.5 0 37.755 0 24.5ZM18.0789 31.7114H23.2591V28.2245H18.0872C17.0097 28.2245 16.0938 27.8624 15.3396 27.1383C14.5854 26.4141 14.2082 25.5348 14.2082 24.5003C14.2082 23.4658 14.5854 22.5864 15.3396 21.8623C16.0938 21.1381 17.0097 20.776 18.0872 20.776H23.2591V17.2892H18.0789C16.0054 17.2892 14.2379 17.9926 12.7764 19.3994C11.315 20.8063 10.5843 22.5071 10.5843 24.5017C10.5843 26.4964 11.315 28.1967 12.7764 29.6026C14.2379 31.0085 16.0054 31.7114 18.0789 31.7114ZM19.0019 23.0357V25.9648H30.8311V23.0357H19.0019ZM26.5739 28.2245V31.7114H31.7541C33.8276 31.7114 35.5951 31.008 37.0566 29.6011C38.518 28.1943 39.2487 26.4935 39.2487 24.4988C39.2487 22.5042 38.518 20.8039 37.0566 19.398C35.5951 17.9921 33.8276 17.2892 31.7541 17.2892H26.5739V20.776H31.7458C32.8233 20.776 33.7392 21.1381 34.4934 21.8623C35.2477 22.5864 35.6248 23.4658 35.6248 24.5003C35.6248 25.5348 35.2477 26.4141 34.4934 27.1383C33.7392 27.8624 32.8233 28.2245 31.7458 28.2245H26.5739Z" fill="black"/>
</svg>
