<svg width="40" height="40" viewBox="0 0 40 40" fill="none" xmlns="http://www.w3.org/2000/svg">
<g clip-path="url(#clip0_1987_7950)">
<path d="M4.41147e-05 32.8108V24.7423C4.41147e-05 24.7423 0.0943583 21.067 3.88142 21.0778C4.33486 21.0742 7.74467 21.0778 7.74467 21.0778C7.74467 21.0778 11.1109 21.608 12.8594 23.5665C14.2668 25.1715 14.8472 27.094 14.8472 28.8433V35.4619C14.8472 35.4619 14.8545 37.2689 13.6611 38.2644C12.4676 39.2598 11.3359 39.7828 9.72526 39.7828C8.11467 39.7828 7.01192 39.7828 7.01192 39.7828C7.01192 39.7828 4.00113 39.8478 1.8174 37.4925C0.881517 36.4177 -0.0072108 34.7766 4.41147e-05 32.8108Z" fill="#DD5D33"/>
<path d="M25.0547 9.76314V7.81905C25.0547 7.81905 25.2107 4.54404 26.872 2.72259C28.5334 0.901134 30.0932 0.168945 33.1947 0.168945H37.7834C37.7834 0.168945 39.9055 0.280757 39.9055 2.27895V15.1662C39.9055 15.1662 39.9019 16.6738 38.9188 17.5178C38.2441 18.1058 36.7968 18.8704 35.9516 18.874C35.1064 18.8776 31.4789 18.8812 31.4789 18.8812C31.4789 18.8812 28.3339 18.8812 26.6653 16.7207C24.9966 14.5602 25.0583 13.2726 25.0583 12.4935V9.76314H25.0547Z" fill="#DD5D33"/>
<path d="M16.8638 28.0106V24.8799C16.8638 24.8799 16.5809 21.1937 20.553 21.1144C24.525 21.035 37.4678 21.1144 37.4678 21.1144C37.4678 21.1144 39.9998 20.9124 39.9998 23.0585V32.3713C39.9998 32.3713 39.9381 35.4948 38.1824 37.255C36.4267 39.0151 33.4449 39.9926 31.4208 39.9926C29.3967 39.9926 19.0403 39.9926 19.0403 39.9926C19.0403 39.9926 16.9255 39.8808 16.8638 37.8285C16.8022 35.7762 16.8638 28.0106 16.8638 28.0106Z" fill="#DD5D33"/>
<path d="M0 11.1019V8.11178C0 8.11178 0.0362746 4.78628 2.37236 2.37691C3.45697 1.26239 5.52099 0 8.52453 0H20.9595C20.9595 0 23.1359 0.111812 23.1359 2.32641C23.1359 4.54101 23.125 15.6429 23.125 15.6429C23.125 15.6429 23.0924 17.0387 22.1311 17.7817C21.1698 18.5247 20.1542 18.8782 18.9208 18.8782H1.9552C1.9552 18.8782 0 18.8854 0 16.7069V11.1019Z" fill="#DD5D33"/>
<path d="M6.88854 1.36328H19.1421C20.3428 1.36328 21.3186 2.33352 21.3186 3.52738V16.8006C21.3186 17.9475 20.3827 18.8781 19.2292 18.8781H1.9552C0.874217 18.8817 0 18.0088 0 16.9376V8.21267C0 4.4327 3.08697 1.36328 6.88854 1.36328Z" fill="#E6993D"/>
<path d="M31.2941 39.9964H19.0405C17.8398 39.9964 16.864 39.0262 16.864 37.8323L16.864 24.5591C16.864 23.4121 17.7999 22.4816 18.9535 22.4816L36.2274 22.4816C37.3048 22.4816 38.1826 23.3508 38.1826 24.4257V33.1506C38.1826 36.9306 35.0956 40 31.2941 40V39.9964Z" fill="#E6993D"/>
<path d="M31.3776 1.5332H35.9664C37.138 1.5332 38.0884 2.4782 38.0884 3.6432V16.599C38.0884 17.8578 37.0582 18.8821 35.7922 18.8821H31.4792C27.9352 18.8821 25.0586 16.0219 25.0586 12.498V7.82353C25.0586 4.35375 27.8916 1.53681 31.3813 1.53681L31.3776 1.5332Z" fill="#1769FF"/>
<path d="M2.32157 22.5605H5.38678C9.60914 22.5605 13.0335 25.969 13.0335 30.1638V36.7462C13.0335 38.4883 11.6115 39.9058 9.8558 39.9058H7.01188C3.14138 39.9094 0 36.7823 0 32.9374V24.8689C0 23.5957 1.04108 22.5605 2.32157 22.5605Z" fill="#E6993D"/>
</g>
<defs>
<clipPath id="clip0_1987_7950">
<rect width="40" height="40" fill="white"/>
</clipPath>
</defs>
</svg>
