<svg width="27" height="27" viewBox="0 0 27 27" fill="none" xmlns="http://www.w3.org/2000/svg">
<g id="Frame 1000002852">
<path id="Vector" d="M2.91323e-05 21.6673V16.339C2.91323e-05 16.339 0.0623121 13.9119 2.56321 13.919C2.86264 13.9166 5.1144 13.919 5.1144 13.919C5.1144 13.919 7.33742 14.2692 8.49205 15.5625C9.4215 16.6225 9.80478 17.892 9.80478 19.0472V23.4179C9.80478 23.4179 9.80957 24.6113 9.02145 25.2687C8.23333 25.9261 7.48594 26.2714 6.42234 26.2714C5.35874 26.2714 4.63051 26.2714 4.63051 26.2714C4.63051 26.2714 2.64226 26.3143 1.20017 24.7589C0.582134 24.0491 -0.00476185 22.9654 2.91323e-05 21.6673Z" fill="#BCBCBC"/>
<path id="Vector_2" d="M16.5449 6.44712V5.16329C16.5449 5.16329 16.6479 3.00054 17.7451 1.7977C18.8422 0.594849 19.8723 0.111328 21.9204 0.111328H24.9507C24.9507 0.111328 26.3521 0.185166 26.3521 1.50473V10.0152C26.3521 10.0152 26.3497 11.0108 25.7005 11.5681C25.2549 11.9564 24.2991 12.4613 23.741 12.4637C23.1828 12.4661 20.7873 12.4685 20.7873 12.4685C20.7873 12.4685 18.7104 12.4685 17.6085 11.0418C16.5066 9.61501 16.5473 8.76468 16.5473 8.25019V6.44712H16.5449Z" fill="#BCBCBC"/>
<path id="Vector_3" d="M11.1353 18.4974V16.4299C11.1353 16.4299 10.9484 13.9956 13.5715 13.9432C16.1946 13.8908 24.7417 13.9432 24.7417 13.9432C24.7417 13.9432 26.4137 13.8098 26.4137 15.227V21.377C26.4137 21.377 26.373 23.4397 25.2136 24.6021C24.0542 25.7645 22.0851 26.4099 20.7484 26.4099C19.4117 26.4099 12.5726 26.4099 12.5726 26.4099C12.5726 26.4099 11.176 26.3361 11.1353 24.9808C11.0946 23.6255 11.1353 18.4974 11.1353 18.4974Z" fill="#BCBCBC"/>
<path id="Vector_4" d="M0 7.33141V5.35684C0 5.35684 0.0239549 3.16075 1.56665 1.56966C2.2829 0.833656 3.64594 0 5.62941 0H13.8411C13.8411 0 15.2784 0.0738381 15.2784 1.53631C15.2784 2.99878 15.2713 10.3302 15.2713 10.3302C15.2713 10.3302 15.2497 11.252 14.6149 11.7426C13.9801 12.2333 13.3094 12.4667 12.4949 12.4667H1.29117C1.29117 12.4667 0 12.4715 0 11.0328V7.33141Z" fill="#BCBCBC"/>
<path id="Vector_5" d="M4.54904 0.900391H12.641C13.4339 0.900391 14.0783 1.54111 14.0783 2.32952V11.0948C14.0783 11.8523 13.4603 12.4668 12.6985 12.4668H1.29117C0.577313 12.4692 0 11.8927 0 11.1853V5.42357C0 2.92737 2.03856 0.900391 4.54904 0.900391Z" fill="white"/>
<path id="Vector_6" d="M20.6658 26.4136H12.5738C11.7809 26.4136 11.1365 25.7729 11.1365 24.9845L11.1365 16.2192C11.1365 15.4618 11.7546 14.8472 12.5163 14.8472L23.9237 14.8472C24.6351 14.8472 25.2148 15.4213 25.2148 16.1311V21.8928C25.2148 24.389 23.1763 26.416 20.6658 26.416V26.4136Z" fill="white"/>
<path id="Vector_7" d="M20.7218 1.01172H23.7521C24.5258 1.01172 25.1534 1.63577 25.1534 2.40512V10.9608C25.1534 11.7921 24.4731 12.4685 23.6371 12.4685H20.7888C18.4485 12.4685 16.5488 10.5797 16.5488 8.25262V5.16571C16.5488 2.87435 18.4197 1.0141 20.7242 1.0141L20.7218 1.01172Z" fill="white"/>
<path id="Vector_8" d="M1.53311 14.8984H3.5573C6.34566 14.8984 8.607 17.1493 8.607 19.9194V24.2664C8.607 25.4168 7.66797 26.3529 6.50855 26.3529H4.63048C2.0745 26.3553 0 24.2902 0 21.7511V16.4228C0 15.582 0.687506 14.8984 1.53311 14.8984Z" fill="white"/>
</g>
</svg>
