<svg width="20" height="21" viewBox="0 0 20 21" fill="none" xmlns="http://www.w3.org/2000/svg">
<g id="notifications">
<mask id="mask0_2582_7074" style="mask-type:alpha" maskUnits="userSpaceOnUse" x="0" y="0" width="20" height="21">
<rect id="Bounding box" y="0.5" width="20" height="20" fill="#D9D9D9"/>
</mask>
<g mask="url(#mask0_2582_7074)">
<path id="notifications_2" d="M3.08203 16.3615V14.6116H4.82509V8.75737C4.82509 7.57218 5.17116 6.51084 5.86328 5.57334C6.55542 4.63584 7.47093 4.02126 8.60982 3.72959V3.13236C8.60982 2.74966 8.74578 2.42944 9.0177 2.17172C9.28961 1.91401 9.61716 1.78516 10.0003 1.78516C10.3835 1.78516 10.7105 1.91401 10.9813 2.17172C11.2522 2.42944 11.3876 2.74966 11.3876 3.13236V3.72959C12.5265 4.02126 13.4466 4.63584 14.148 5.57334C14.8494 6.51084 15.2001 7.57218 15.2001 8.75737V14.6116H16.9154V16.3615H3.08203ZM9.99797 19.1949C9.50286 19.1949 9.07364 19.0154 8.71032 18.6563C8.34702 18.2973 8.16536 17.8657 8.16536 17.3615H11.832C11.832 17.8708 11.6524 18.3037 11.2933 18.6601C10.9341 19.0166 10.5023 19.1949 9.99797 19.1949Z" fill="white"/>
</g>
</g>
</svg>
