<svg width="25" height="24" viewBox="0 0 25 24" fill="none" xmlns="http://www.w3.org/2000/svg">
<g id="person_add">
<path id="person_add_2" d="M17.725 14.6V11.55H14.675V8.9H17.725V5.85H20.375V8.9H23.425V11.55H20.375V14.6H17.725ZM8.75 12.1C7.48333 12.1 6.40833 11.6583 5.525 10.775C4.64167 9.89167 4.2 8.81667 4.2 7.55C4.2 6.28333 4.64167 5.20833 5.525 4.325C6.40833 3.44167 7.48333 3 8.75 3C10.0167 3 11.0917 3.44167 11.975 4.325C12.8583 5.20833 13.3 6.28333 13.3 7.55C13.3 8.81667 12.8583 9.89167 11.975 10.775C11.0917 11.6583 10.0167 12.1 8.75 12.1ZM0 21.925V18.35C0 17.6667 0.164067 17.0512 0.4922 16.5037C0.8203 15.9561 1.25623 15.5382 1.8 15.25C2.9 14.6833 4.03257 14.2583 5.1977 13.975C6.36282 13.6917 7.54615 13.55 8.7477 13.55C9.94923 13.55 11.1333 13.6917 12.3 13.975C13.4667 14.2583 14.6 14.6833 15.7 15.25C16.2437 15.5382 16.6797 15.9561 17.0078 16.5037C17.3359 17.0512 17.5 17.6667 17.5 18.35V21.925H0Z" fill="black"/>
<mask id="mask0_764_23210" style="mask-type:alpha" maskUnits="userSpaceOnUse" x="1" y="0" width="24" height="24">
<rect id="Bounding box" x="1" width="24" height="24" fill="#D9D9D9"/>
</mask>
<g mask="url(#mask0_764_23210)">
</g>
</g>
</svg>
