<svg width="20" height="20" viewBox="0 0 20 20" fill="none" xmlns="http://www.w3.org/2000/svg">
<g id="person_add">
<mask id="mask0_2097_3003" style="mask-type:alpha" maskUnits="userSpaceOnUse" x="0" y="0" width="20" height="20">
<rect id="Bounding box" width="20" height="20" fill="#D9D9D9"/>
</mask>
<g mask="url(#mask0_2097_3003)">
<path id="person_add_2" d="M14.3542 11.3333V9.54167H12.5625V7.5H14.3542V5.70833H16.3958V7.5H18.1875V9.54167H16.3958V11.3333H14.3542ZM7.625 9.91667C6.65278 9.91667 5.83333 9.58333 5.16667 8.91667C4.5 8.25 4.16667 7.43056 4.16667 6.45833C4.16667 5.48611 4.5 4.66667 5.16667 4C5.83333 3.33333 6.65278 3 7.625 3C8.59722 3 9.41667 3.33333 10.0833 4C10.75 4.66667 11.0833 5.48611 11.0833 6.45833C11.0833 7.43056 10.75 8.25 10.0833 8.91667C9.41667 9.58333 8.59722 9.91667 7.625 9.91667ZM1 17.4375V14.875C1 14.4197 1.102 14.0118 1.306 13.6512C1.50997 13.2906 1.78992 13.0041 2.14583 12.7917C2.96528 12.3056 3.83964 11.934 4.76892 11.6771C5.69818 11.4201 6.64957 11.2917 7.62308 11.2917C8.59658 11.2917 9.54861 11.4201 10.4792 11.6771C11.4097 11.934 12.2847 12.3056 13.1042 12.7917C13.4601 13.0041 13.74 13.2906 13.944 13.6512C14.148 14.0118 14.25 14.4197 14.25 14.875V17.4375H1Z" fill="#848484"/>
</g>
</g>
</svg>
