<svg width="28" height="24" viewBox="0 0 28 24" fill="none" xmlns="http://www.w3.org/2000/svg">
<g id="person_add">
<mask id="mask0_787_19676" style="mask-type:alpha" maskUnits="userSpaceOnUse" x="0" y="0" width="28" height="24">
<rect id="Bounding box" width="28" height="24" fill="#D9D9D9"/>
</mask>
<g mask="url(#mask0_787_19676)">
<path id="person_add_2" d="M11.75 12.1C10.4833 12.1 9.40833 11.6583 8.525 10.775C7.64167 9.89167 7.2 8.81667 7.2 7.55C7.2 6.28333 7.64167 5.20833 8.525 4.325C9.40833 3.44167 10.4833 3 11.75 3C13.0167 3 14.0917 3.44167 14.975 4.325C15.8583 5.20833 16.3 6.28333 16.3 7.55C16.3 8.81667 15.8583 9.89167 14.975 10.775C14.0917 11.6583 13.0167 12.1 11.75 12.1ZM3 21.925V18.35C3 17.6667 3.16407 17.0512 3.4922 16.5037C3.8203 15.9561 4.25623 15.5382 4.8 15.25C5.9 14.6833 7.03257 14.2583 8.1977 13.975C9.36282 13.6917 10.5461 13.55 11.7477 13.55C12.9492 13.55 14.1333 13.6917 15.3 13.975C16.4667 14.2583 17.6 14.6833 18.7 15.25C19.2437 15.5382 19.6797 15.9561 20.0078 16.5037C20.3359 17.0512 20.5 17.6667 20.5 18.35V21.925H3Z" fill="white"/>
<g id="check_small">
<mask id="mask1_787_19676" style="mask-type:alpha" maskUnits="userSpaceOnUse" x="12" y="0" width="20" height="20">
<rect id="Bounding box_2" x="12" width="20" height="20" fill="#D9D9D9"/>
</mask>
<g mask="url(#mask1_787_19676)">
<path id="check_small_2" d="M20.3335 14.4173L16.521 10.6048L18.271 8.85482L20.3335 10.9173L25.7293 5.52148L27.4793 7.27148L20.3335 14.4173Z" fill="white"/>
</g>
</g>
</g>
</g>
</svg>
