<svg width="40" height="40" viewBox="0 0 40 40" fill="none" xmlns="http://www.w3.org/2000/svg">
<g id="report">
<mask id="mask0_427_17061" style="mask-type:alpha" maskUnits="userSpaceOnUse" x="0" y="0" width="40" height="40">
<rect id="Bounding box" width="40" height="40" fill="#D9D9D9"/>
</mask>
<g mask="url(#mask0_427_17061)">
<path id="report_2" d="M20 28.3055C20.4167 28.3055 20.7755 28.1551 21.0764 27.8542C21.3773 27.5533 21.5278 27.1945 21.5278 26.7778C21.5278 26.3611 21.3773 26.0023 21.0764 25.7014C20.7755 25.4005 20.4167 25.25 20 25.25C19.5833 25.25 19.2245 25.4005 18.9236 25.7014C18.6227 26.0023 18.4722 26.3611 18.4722 26.7778C18.4722 27.1945 18.6227 27.5533 18.9236 27.8542C19.2245 28.1551 19.5833 28.3055 20 28.3055ZM18.6111 22.0833H21.3889V11.4445H18.6111V22.0833ZM13.75 35L5 26.25V13.75L13.75 5H26.25L35 13.75V26.25L26.25 35H13.75ZM14.9167 32.2222H25.0833L32.2222 25.0833V14.9167L25.0833 7.77775H14.9167L7.77775 14.9167V25.0833L14.9167 32.2222Z" fill="#CC3057"/>
</g>
</g>
</svg>
