<svg width="15" height="16" viewBox="0 0 15 16" fill="none" xmlns="http://www.w3.org/2000/svg">
<path d="M7.57495 8.48755C7.5312 8.4813 7.47495 8.4813 7.42495 8.48755C6.32495 8.45005 5.44995 7.55005 5.44995 6.4438C5.44995 5.31255 6.36245 4.3938 7.49995 4.3938C8.6312 4.3938 9.54995 5.31255 9.54995 6.4438C9.5437 7.55005 8.67495 8.45005 7.57495 8.48755Z" stroke="#1B1B2D" stroke-width="1.5" stroke-linecap="round" stroke-linejoin="round"/>
<path d="M11.7126 12.6126C10.6001 13.6313 9.1251 14.2501 7.5001 14.2501C5.8751 14.2501 4.4001 13.6313 3.2876 12.6126C3.3501 12.0251 3.7251 11.4501 4.39385 11.0001C6.10635 9.8626 8.90635 9.8626 10.6063 11.0001C11.2751 11.4501 11.6501 12.0251 11.7126 12.6126Z" stroke="#1B1B2D" stroke-width="1.5" stroke-linecap="round" stroke-linejoin="round"/>
<path d="M7.5 14.25C10.9518 14.25 13.75 11.4518 13.75 8C13.75 4.54822 10.9518 1.75 7.5 1.75C4.04822 1.75 1.25 4.54822 1.25 8C1.25 11.4518 4.04822 14.25 7.5 14.25Z" stroke="#1B1B2D" stroke-width="1.5" stroke-linecap="round" stroke-linejoin="round"/>
</svg>
