<svg width="20" height="21" viewBox="0 0 20 21" fill="none" xmlns="http://www.w3.org/2000/svg">
<g id="search">
<mask id="mask0_2582_7071" style="mask-type:alpha" maskUnits="userSpaceOnUse" x="0" y="0" width="20" height="21">
<rect id="Bounding box" y="0.5" width="20" height="20" fill="#000000"/>
</mask>
<g mask="url(#mask0_2582_7071)">
<path id="search_2" d="M16.6308 18.3472L11.2003 12.9167C10.7744 13.2639 10.2664 13.5336 9.67655 13.7257C9.08666 13.9178 8.48086 14.0139 7.85915 14.0139C6.24712 14.0139 4.8894 13.4618 3.78598 12.3576C2.68257 11.2535 2.13086 9.9074 2.13086 8.31944C2.13086 6.73148 2.68294 5.38542 3.78711 4.28125C4.89126 3.17708 6.23733 2.625 7.8253 2.625C9.41326 2.625 10.7593 3.17708 11.8635 4.28125C12.9677 5.38542 13.5197 6.73217 13.5197 8.32152C13.5197 8.93588 13.4283 9.52547 13.2454 10.0903C13.0625 10.6551 12.7859 11.1782 12.4156 11.6597L17.8808 17.0972L16.6308 18.3472ZM7.83223 12.2639C8.9364 12.2639 9.86869 11.8818 10.6291 11.1175C11.3895 10.3532 11.7697 9.42052 11.7697 8.31944C11.7697 7.21835 11.3899 6.28567 10.6303 5.5214C9.87074 4.75713 8.93845 4.375 7.83346 4.375C6.72075 4.375 5.78381 4.75713 5.02263 5.5214C4.26144 6.28567 3.88084 7.21835 3.88084 8.31944C3.88084 9.42052 4.26144 10.3532 5.02263 11.1175C5.78381 11.8818 6.72035 12.2639 7.83223 12.2639Z" fill="#000000"/>
</g>
</g>
</svg>
