<svg width="19" height="22" viewBox="0 0 19 22" fill="none" xmlns="http://www.w3.org/2000/svg">
<path d="M15.6294 21.5C14.6931 21.5 13.8958 21.1743 13.2375 20.5229C12.5792 19.8715 12.25 19.0805 12.25 18.15C12.25 18.0417 12.2583 17.9295 12.275 17.8134C12.2917 17.6973 12.3167 17.5928 12.35 17.5L5.55 13.6C5.25 13.85 4.9125 14.0375 4.5375 14.1625C4.1625 14.2875 3.78333 14.35 3.4 14.35C2.45555 14.35 1.65278 14.024 0.991675 13.372C0.330559 12.7201 0 11.9284 0 10.9971C0 10.0657 0.330559 9.275 0.991675 8.625C1.65278 7.975 2.45555 7.65 3.4 7.65C3.78333 7.65 4.1625 7.7125 4.5375 7.8375C4.9125 7.9625 5.25 8.15 5.55 8.4L12.35 4.49945C12.3167 4.40432 12.2917 4.29729 12.275 4.17838C12.2583 4.05946 12.25 3.95 12.25 3.85C12.25 2.91945 12.5777 2.12848 13.2331 1.47708C13.8885 0.825692 14.6843 0.5 15.6206 0.5C16.5569 0.5 17.3542 0.825983 18.0125 1.47795C18.6708 2.1299 19 2.92157 19 3.85295C19 4.78432 18.6694 5.575 18.0083 6.225C17.3472 6.875 16.5445 7.2 15.6 7.2C15.2167 7.2 14.8375 7.1375 14.4625 7.0125C14.0875 6.8875 13.75 6.7 13.45 6.45L6.65 10.35C6.68333 10.4429 6.70833 10.5473 6.725 10.6634C6.74167 10.7795 6.75 10.8917 6.75 11C6.75 11.1083 6.74167 11.2205 6.725 11.3366C6.70833 11.4527 6.68333 11.5572 6.65 11.65L13.45 15.55C13.75 15.3 14.0875 15.1125 14.4625 14.9875C14.8375 14.8625 15.2167 14.8 15.6 14.8C16.5445 14.8 17.3472 15.126 18.0083 15.778C18.6694 16.4299 19 17.2216 19 18.153C19 19.0843 18.6723 19.875 18.0169 20.525C17.3615 21.175 16.5657 21.5 15.6294 21.5Z" fill="black"/>
</svg>
