<svg width="20" height="20" viewBox="0 0 20 20" fill="none" xmlns="http://www.w3.org/2000/svg">
<g id="share">
<mask id="mask0_2097_3006" style="mask-type:alpha" maskUnits="userSpaceOnUse" x="0" y="0" width="20" height="20">
<rect id="Bounding box" width="20" height="20" fill="#D9D9D9"/>
</mask>
<g mask="url(#mask0_2097_3006)">
<path id="share_2" d="M14.6085 18.3763C13.8283 18.3763 13.1638 18.1049 12.6152 17.5621C12.0666 17.0192 11.7923 16.3601 11.7923 15.5846C11.7923 15.4805 11.7993 15.387 11.8132 15.3041C11.827 15.2213 11.8479 15.1273 11.8757 15.0221L7.12565 12.168C6.90343 12.3902 6.64055 12.543 6.33703 12.6263C6.0335 12.7096 5.72693 12.7513 5.41732 12.7513C4.63028 12.7513 3.9613 12.4796 3.41038 11.9363C2.85945 11.3931 2.58398 10.7333 2.58398 9.95718C2.58398 9.18104 2.85945 8.52214 3.41038 7.98047C3.9613 7.4388 4.63028 7.16797 5.41732 7.16797C5.72287 7.16797 6.02843 7.21311 6.33398 7.30339C6.63954 7.39366 6.90343 7.54297 7.12565 7.7513L11.8757 4.89668C11.8479 4.78962 11.827 4.69349 11.8132 4.60828C11.7993 4.52307 11.7923 4.43186 11.7923 4.33464C11.7923 3.55918 12.0654 2.90003 12.6115 2.3572C13.1577 1.81438 13.8209 1.54297 14.6012 1.54297C15.3814 1.54297 16.0458 1.81462 16.5944 2.35793C17.143 2.90122 17.4173 3.56094 17.4173 4.33709C17.4173 5.11323 17.1419 5.77214 16.5909 6.3138C16.04 6.85547 15.371 7.1263 14.584 7.1263C14.2744 7.1263 13.9678 7.08464 13.6643 7.0013C13.3607 6.91797 13.0979 6.76519 12.8757 6.54297L8.12565 9.39714C8.15343 9.50229 8.17426 9.59629 8.18815 9.67914C8.20204 9.76197 8.20898 9.85547 8.20898 9.95964C8.20898 10.0638 8.20204 10.1573 8.18815 10.2401C8.17426 10.323 8.15343 10.417 8.12565 10.5221L12.8757 13.3763C13.0979 13.1402 13.3607 12.9839 13.6643 12.9076C13.9678 12.8312 14.2744 12.793 14.584 12.793C15.371 12.793 16.04 13.0646 16.5909 13.6079C17.1419 14.1512 17.4173 14.8109 17.4173 15.5871C17.4173 16.3632 17.1442 17.0221 16.5981 17.5638C16.0519 18.1055 15.3887 18.3763 14.6085 18.3763Z" fill="#848484"/>
</g>
</g>
</svg>
