<svg width="24" height="24" viewBox="0 0 24 24" fill="none" xmlns="http://www.w3.org/2000/svg">
<g id="share">
<mask id="mask0_787_19687" style="mask-type:alpha" maskUnits="userSpaceOnUse" x="0" y="0" width="24" height="24">
<rect id="Bounding box" width="24" height="24" fill="#D9D9D9"/>
</mask>
<g mask="url(#mask0_787_19687)">
<path id="share_2" d="M18.1294 22.4492C17.1931 22.4492 16.3958 22.1235 15.7375 21.4721C15.0792 20.8207 14.75 20.0298 14.75 19.0992C14.75 18.9909 14.7583 18.8787 14.775 18.7626C14.7917 18.6465 14.8167 18.5421 14.85 18.4492L8.05 14.5492C7.75 14.7992 7.4125 14.9867 7.0375 15.1117C6.6625 15.2367 6.28333 15.2992 5.9 15.2992C4.95555 15.2992 4.15278 14.9732 3.49168 14.3213C2.83056 13.6693 2.5 12.8777 2.5 11.9463C2.5 11.0149 2.83056 10.2242 3.49168 9.57422C4.15278 8.92422 4.95555 8.59922 5.9 8.59922C6.28333 8.59922 6.6625 8.66172 7.0375 8.78672C7.4125 8.91172 7.75 9.09922 8.05 9.34922L14.85 5.44867C14.8167 5.35354 14.7917 5.24651 14.775 5.12759C14.7583 5.00868 14.75 4.89922 14.75 4.79922C14.75 3.86867 15.0777 3.07769 15.7331 2.42629C16.3885 1.77491 17.1843 1.44922 18.1206 1.44922C19.0569 1.44922 19.8542 1.7752 20.5125 2.42717C21.1708 3.07912 21.5 3.87078 21.5 4.80217C21.5 5.73353 21.1694 6.52422 20.5083 7.17422C19.8472 7.82422 19.0445 8.14922 18.1 8.14922C17.7167 8.14922 17.3375 8.08672 16.9625 7.96172C16.5875 7.83672 16.25 7.64922 15.95 7.39922L9.15 11.2992C9.18333 11.3921 9.20833 11.4965 9.225 11.6126C9.24167 11.7287 9.25 11.8409 9.25 11.9492C9.25 12.0576 9.24167 12.1698 9.225 12.2858C9.20833 12.4019 9.18333 12.5064 9.15 12.5992L15.95 16.4992C16.25 16.2492 16.5875 16.0617 16.9625 15.9367C17.3375 15.8117 17.7167 15.7492 18.1 15.7492C19.0445 15.7492 19.8472 16.0752 20.5083 16.7272C21.1694 17.3791 21.5 18.1708 21.5 19.1022C21.5 20.0335 21.1723 20.8242 20.5169 21.4742C19.8615 22.1242 19.0657 22.4492 18.1294 22.4492Z" fill="white"/>
</g>
</g>
</svg>
