<svg width="48" height="49" viewBox="0 0 48 49" fill="none" xmlns="http://www.w3.org/2000/svg">
<g id="Social Icons">
<path id="Vector" d="M18.2382 1.20064L18.7769 3.38262C16.6538 3.90733 14.6218 4.74863 12.7492 5.87825L11.5968 3.94857C13.6581 2.70031 15.8976 1.77368 18.2382 1.20064ZM29.7618 1.20064L29.2231 3.38262C31.3462 3.90733 33.3782 4.74863 35.2508 5.87825L36.4168 3.94857C34.3501 2.7014 32.1063 1.77489 29.7618 1.20064ZM3.44854 12.0901C2.20144 14.1543 1.27491 16.3959 0.700615 18.7383L2.88259 19.2769C3.4073 17.1539 4.2486 15.1219 5.37822 13.2492L3.44854 12.0901ZM2.24845 24.5C2.24829 23.409 2.33034 22.3194 2.49392 21.2407L0.271038 20.8998C-0.0903461 23.2841 -0.0903461 25.7092 0.271038 28.0935L2.49392 27.7593C2.3306 26.6806 2.24854 25.5911 2.24845 24.5ZM36.4032 45.0447L35.2508 43.1218C33.3811 44.2525 31.3512 45.0939 29.2299 45.6174L29.7686 47.7994C32.1063 47.2209 34.3432 46.2921 36.4032 45.0447ZM45.7515 24.5C45.7515 25.5911 45.6694 26.6806 45.5061 27.7593L47.729 28.0935C48.0903 25.7092 48.0903 23.2841 47.729 20.8998L45.5061 21.2407C45.6697 22.3194 45.7517 23.409 45.7515 24.5ZM47.2994 30.255L45.1174 29.7163C44.5939 31.8419 43.7526 33.8764 42.6218 35.7508L44.5515 36.91C45.7998 34.8439 46.7263 32.5999 47.2994 30.255ZM27.2593 46.0061C25.0988 46.3334 22.9012 46.3334 20.7407 46.0061L20.4066 48.229C22.7886 48.5904 25.2114 48.5904 27.5934 48.229L27.2593 46.0061ZM41.5103 37.4009C40.2143 39.1584 38.6603 40.7101 36.9009 42.0035L38.2374 43.8173C40.1753 42.3907 41.8897 40.6832 43.3241 38.751L41.5103 37.4009ZM36.9009 6.98969C38.6605 8.28559 40.2144 9.83955 41.5103 11.5991L43.3241 10.249C41.8948 8.31512 40.1849 6.60527 38.251 5.17593L36.9009 6.98969ZM6.48966 11.5991C7.78556 9.83955 9.33952 8.28559 11.0991 6.98969L9.74899 5.17593C7.81509 6.60527 6.10524 8.31512 4.6759 10.249L6.48966 11.5991ZM44.5515 12.0901L42.6218 13.2492C43.7524 15.1189 44.5938 17.1488 45.1174 19.2701L47.2994 18.7314C46.725 16.3913 45.7985 14.1519 44.5515 12.0901ZM20.7407 2.99395C22.9012 2.66662 25.0988 2.66662 27.2593 2.99395L27.5934 0.771067C25.2114 0.409644 22.7886 0.409644 20.4066 0.771067L20.7407 2.99395ZM7.64202 44.4174L2.99851 45.4947L4.08267 40.8512L1.89388 40.3398L0.809713 44.9833C0.741878 45.2712 0.731468 45.5696 0.779078 45.8616C0.826688 46.1535 0.931384 46.4332 1.08718 46.6846C1.24297 46.936 1.4468 47.1542 1.68702 47.3268C1.92723 47.4994 2.19911 47.6229 2.48711 47.6903C2.82391 47.7653 3.1731 47.7653 3.50991 47.6903L8.15342 46.6198L7.64202 44.4174ZM2.35755 38.3351L4.55316 38.8397L5.30321 35.6213C4.20789 33.7839 3.39208 31.7938 2.88259 29.7163L0.700615 30.255C1.19141 32.2436 1.93381 34.1615 2.90986 35.9622L2.35755 38.3351ZM12.8583 43.2036L9.63989 43.9537L10.1513 46.1493L12.5174 45.597C14.3168 46.576 16.235 47.3185 18.2246 47.8062L18.7633 45.6243C16.6922 45.1081 14.7092 44.2878 12.8788 43.19L12.8583 43.2036ZM24 4.99864C13.2265 5.00546 4.50543 13.7402 4.50543 24.5068C4.51136 28.174 5.54866 31.7656 7.49883 34.8712L5.62369 42.8763L13.622 41.0012C22.7385 46.7357 34.7803 44.0014 40.5148 34.8917C46.2493 25.7819 43.5218 13.7402 34.4121 7.99885C31.2934 6.03767 27.6841 4.99764 24 4.99864Z" fill="#3A76F0"/>
</g>
</svg>
