<svg width="48" height="49" viewBox="0 0 48 49" fill="none" xmlns="http://www.w3.org/2000/svg">
<g id="Social Icons" clip-path="url(#clip0_804_20022)">
<path id="Vector" d="M24 48.5C37.2548 48.5 48 37.7548 48 24.5C48 11.2452 37.2548 0.5 24 0.5C10.7452 0.5 0 11.2452 0 24.5C0 37.7548 10.7452 48.5 24 48.5Z" fill="url(#paint0_linear_804_20022)"/>
<path id="Vector_2" fill-rule="evenodd" clip-rule="evenodd" d="M10.8635 24.2459C17.86 21.1977 22.5255 19.1881 24.8598 18.2171C31.5249 15.4449 32.9098 14.9633 33.8125 14.9474C34.011 14.9439 34.4549 14.9931 34.7425 15.2265C34.9853 15.4235 35.0521 15.6896 35.0841 15.8764C35.116 16.0632 35.1558 16.4887 35.1242 16.8212C34.763 20.6162 33.2002 29.8256 32.4051 34.076C32.0687 35.8745 31.4062 36.4775 30.7649 36.5365C29.3712 36.6648 28.3129 35.6155 26.963 34.7306C24.8507 33.346 23.6573 32.484 21.607 31.1328C19.2374 29.5713 20.7735 28.7131 22.1239 27.3105C22.4773 26.9435 28.6181 21.358 28.737 20.8513C28.7518 20.7879 28.7656 20.5517 28.6253 20.427C28.485 20.3022 28.2778 20.3449 28.1284 20.3788C27.9165 20.4269 24.5421 22.6573 18.005 27.0699C17.0472 27.7277 16.1796 28.0481 15.4023 28.0313C14.5454 28.0128 12.897 27.5468 11.6716 27.1485C10.1686 26.6599 8.97407 26.4016 9.07809 25.5719C9.13227 25.1397 9.72742 24.6977 10.8635 24.2459Z" fill="white"/>
</g>
<defs>
<linearGradient id="paint0_linear_804_20022" x1="24" y1="0.5" x2="24" y2="48.144" gradientUnits="userSpaceOnUse">
<stop stop-color="#2AABEE"/>
<stop offset="1" stop-color="#229ED9"/>
</linearGradient>
<clipPath id="clip0_804_20022">
<rect width="48" height="48" fill="white" transform="translate(0 0.5)"/>
</clipPath>
</defs>
</svg>
