<svg width="48" height="49" viewBox="0 0 48 49" fill="none" xmlns="http://www.w3.org/2000/svg">
<g id="Social Icons">
<path id="Vector" d="M15.095 44.0005C33.2083 44.0005 43.1155 28.9938 43.1155 15.9801C43.1155 15.5538 43.1155 15.1295 43.0867 14.7071C45.0141 13.313 46.6778 11.5869 48 9.6095C46.2028 10.4063 44.2961 10.9286 42.3437 11.1589C44.3996 9.92832 45.9383 7.99251 46.6733 5.7119C44.7402 6.85912 42.6253 7.66756 40.4198 8.1023C38.935 6.52346 36.9712 5.47799 34.8324 5.12767C32.6935 4.77736 30.4988 5.14173 28.5879 6.16441C26.677 7.18709 25.1564 8.81105 24.2615 10.785C23.3665 12.7589 23.1471 14.9728 23.6371 17.0841C19.7218 16.8877 15.8915 15.8701 12.3949 14.0975C8.89831 12.3249 5.81353 9.83682 3.3408 6.79478C2.08146 8.96277 1.69574 11.5292 2.2622 13.9716C2.82865 16.414 4.30468 18.5487 6.38976 19.941C4.82246 19.8951 3.2893 19.4723 1.92 18.7084V18.8332C1.92062 21.1069 2.7077 23.3104 4.14774 25.0699C5.58778 26.8295 7.59212 28.0367 9.8208 28.4869C8.37096 28.8824 6.84975 28.9402 5.37408 28.6559C6.00363 30.6126 7.22886 32.3236 8.87848 33.5498C10.5281 34.776 12.5197 35.4561 14.5747 35.4949C12.5329 37.0999 10.1946 38.2865 7.69375 38.9869C5.19287 39.6874 2.57843 39.8878 0 39.5769C4.50367 42.4669 9.74385 43.9999 15.095 43.9929" fill="#1DA1F2"/>
</g>
</svg>
