<svg width="48" height="48" viewBox="0 0 48 48" fill="none" xmlns="http://www.w3.org/2000/svg">
<g id="feather:upload-cloud">
<g id="Group">
<path id="Vector" d="M32 32L24 24L16 32" stroke="#ADADAD" stroke-width="2" stroke-linecap="round" stroke-linejoin="round"/>
<path id="Vector_2" d="M24 24V42" stroke="#ADADAD" stroke-width="2" stroke-linecap="round" stroke-linejoin="round"/>
<path id="Vector_3" d="M40.7809 36.7809C42.7316 35.7175 44.2726 34.0347 45.1606 31.9982C46.0487 29.9617 46.2333 27.6874 45.6853 25.5343C45.1373 23.3812 43.8879 21.472 42.1342 20.1078C40.3806 18.7437 38.2226 18.0024 36.0009 18.0009H33.4809C32.8755 15.6594 31.7472 13.4856 30.1808 11.6429C28.6144 9.80025 26.6506 8.33665 24.4371 7.36216C22.2236 6.38767 19.818 5.92766 17.4011 6.01671C14.9843 6.10576 12.619 6.74154 10.4833 7.87628C8.34747 9.01101 6.49672 10.6152 5.07014 12.5681C3.64356 14.5211 2.67828 16.772 2.24686 19.1517C1.81544 21.5315 1.92911 23.978 2.57932 26.3075C3.22954 28.6369 4.39938 30.7887 6.0009 32.6009" stroke="#ADADAD" stroke-width="2" stroke-linecap="round" stroke-linejoin="round"/>
<path id="Vector_4" d="M32 32L24 24L16 32" stroke="#ADADAD" stroke-width="2" stroke-linecap="round" stroke-linejoin="round"/>
</g>
</g>
</svg>
