<svg width="50" height="51" viewBox="0 0 50 51" fill="none" xmlns="http://www.w3.org/2000/svg">
<g id="whatsapp" clip-path="url(#clip0_804_20015)">
<path id="Vector" d="M1.16155 50.5C0.880787 50.5 0.607656 50.389 0.405095 50.1841C0.138067 49.9141 0.0350704 49.5219 0.135397 49.1553L3.3859 37.2855C1.3622 33.6261 0.295232 29.4864 0.296758 25.2841C0.30248 11.6179 11.4238 0.5 25.0888 0.5C31.7168 0.50267 37.9447 3.08446 42.6257 7.76891C47.306 12.4537 49.8824 18.6812 49.8805 25.3039C49.8744 38.9705 38.753 50.0892 25.0888 50.0892C25.0888 50.0892 25.0785 50.0892 25.0781 50.0892C21.0868 50.0876 17.1298 49.1149 13.6066 47.2724L1.43125 50.4653C1.34198 50.4886 1.25119 50.5 1.16155 50.5Z" fill="#E5E5E5"/>
<path id="Vector_2" d="M1.16162 49.4365L4.52771 37.1444C2.45137 33.5468 1.35922 29.4658 1.36075 25.2849C1.36609 12.2055 12.0099 1.56445 25.089 1.56445C31.4359 1.56712 37.3933 4.03752 41.8733 8.5213C46.3529 13.0051 48.8191 18.9652 48.8168 25.304C48.8111 38.3831 38.1658 49.0257 25.089 49.0257C25.0882 49.0257 25.0893 49.0257 25.089 49.0257H25.0787C21.1076 49.0241 17.2059 48.0281 13.7402 46.1379L1.16162 49.4365ZM14.3227 41.8437L15.0433 42.2706C18.0707 44.0673 21.5417 45.0176 25.0813 45.0195H25.089C35.9586 45.0195 44.8056 36.174 44.8102 25.3025C44.8121 20.034 42.7629 15.0799 39.0393 11.3533C35.3154 7.62676 30.3643 5.57331 25.0962 5.57102C14.2178 5.57102 5.37115 14.4154 5.36695 25.2865C5.36542 29.0119 6.4076 32.6397 8.38209 35.7792L8.8513 36.5253L6.8585 43.8007L14.3227 41.8437Z" fill="white"/>
<path id="Vector_3" d="M1.98682 48.6076L5.23655 36.7405C3.23155 33.2676 2.17755 29.3274 2.1787 25.2918C2.18365 12.6652 12.4593 2.39258 25.0848 2.39258C31.2127 2.39525 36.9641 4.7802 41.2881 9.10873C45.6132 13.4373 47.9935 19.191 47.9913 25.3098C47.9859 37.9368 37.7099 48.2105 25.0859 48.2105C25.0848 48.2105 25.0863 48.2105 25.0859 48.2105H25.0756C21.2422 48.209 17.4752 47.2469 14.1297 45.4235L1.98682 48.6076Z" fill="#64B161"/>
<g id="Group">
<path id="Vector_4" d="M1.16162 49.4365L4.52771 37.1444C2.45137 33.5468 1.35922 29.4658 1.36075 25.2849C1.36609 12.2055 12.0099 1.56445 25.089 1.56445C31.4359 1.56712 37.3933 4.03752 41.8733 8.5213C46.3529 13.0051 48.8191 18.9652 48.8168 25.304C48.8111 38.3831 38.1658 49.0257 25.089 49.0257C25.0882 49.0257 25.0893 49.0257 25.089 49.0257H25.0787C21.1076 49.0241 17.2059 48.0281 13.7402 46.1379L1.16162 49.4365ZM14.3227 41.8437L15.0433 42.2706C18.0707 44.0673 21.5417 45.0176 25.0813 45.0195H25.089C35.9586 45.0195 44.8056 36.174 44.8102 25.3025C44.8121 20.034 42.7629 15.0799 39.0393 11.3533C35.3154 7.62676 30.3643 5.57331 25.0962 5.57102C14.2178 5.57102 5.37115 14.4154 5.36695 25.2865C5.36542 29.0119 6.4076 32.6397 8.38209 35.7792L8.8513 36.5253L6.8585 43.8007L14.3227 41.8437Z" fill="white"/>
<path id="Vector_5" fill-rule="evenodd" clip-rule="evenodd" d="M19.1585 15.3685C18.7145 14.3812 18.2468 14.3614 17.8241 14.3442C17.4785 14.3293 17.0829 14.3301 16.6881 14.3301C16.2929 14.3301 15.6505 14.4789 15.1073 15.072C14.5637 15.6652 13.0317 17.0996 13.0317 20.0167C13.0317 22.9342 15.1565 25.7529 15.4529 26.1488C15.7493 26.5444 19.5545 32.722 25.5805 35.0985C30.5888 37.0738 31.6077 36.6809 32.6949 36.5821C33.7821 36.4833 36.2025 35.1478 36.6965 33.7634C37.1909 32.379 37.1909 31.1927 37.0425 30.9443C36.8941 30.6975 36.4989 30.5491 35.9061 30.2527C35.3133 29.9563 32.3985 28.5216 31.8549 28.324C31.3113 28.126 30.9161 28.0276 30.5209 28.6212C30.1254 29.214 28.9901 30.5491 28.6441 30.9443C28.2981 31.3407 27.9521 31.3903 27.3593 31.0935C26.7665 30.7963 24.8569 30.1707 22.5917 28.1508C20.8293 26.5795 19.6392 24.6386 19.2932 24.045C18.9476 23.4522 19.2874 23.1592 19.5537 22.8354C20.0332 22.2521 20.8377 21.2034 21.0353 20.8082C21.2329 20.4123 21.1341 20.0663 20.9861 19.7695C20.8377 19.4731 19.6853 16.5411 19.1585 15.3685Z" fill="white"/>
</g>
</g>
<defs>
<clipPath id="clip0_804_20015">
<rect width="50" height="50" fill="white" transform="translate(0 0.5)"/>
</clipPath>
</defs>
</svg>
